<svg width="25" height="24" viewBox="0 0 25 24" fill="none" xmlns="http://www.w3.org/2000/svg">
<path fill-rule="evenodd" clip-rule="evenodd" d="M19.874 2.82997C18.882 3.00597 17.54 3.44997 15.644 4.08297L6.31203 7.19297C5.25203 7.54697 4.52503 7.79097 4.01803 8.03397C3.51503 8.27597 3.38103 8.44797 3.32903 8.57297C3.28549 8.67807 3.25915 8.7895 3.25103 8.90297C3.24103 9.03697 3.28403 9.25097 3.62603 9.69297C3.97103 10.137 4.51203 10.68 5.30203 11.47L5.58503 11.753L5.62503 11.793C5.84103 12.009 6.01603 12.183 6.15303 12.386C6.42203 12.781 6.57403 13.244 6.59303 13.722C6.60303 13.966 6.56603 14.211 6.52103 14.512L6.51203 14.568C6.43207 15.0611 6.36537 15.5563 6.31203 16.053C6.28003 16.412 6.29203 16.609 6.32303 16.746C6.34603 16.843 6.37503 16.938 6.41103 17.028L20.689 2.74997C20.475 2.74597 20.209 2.76997 19.874 2.82997ZM22.543 1.95697C23.308 2.72297 23.347 3.76697 23.147 4.88797C22.949 6.00197 22.467 7.44797 21.861 9.26597L18.693 18.77C18.369 19.742 18.103 20.538 17.823 21.127C17.536 21.729 17.167 22.263 16.553 22.534C16.2666 22.6597 15.9595 22.7319 15.647 22.747C14.976 22.78 14.407 22.467 13.882 22.057C13.367 21.657 12.774 21.063 12.05 20.339L11.762 20.051C11.478 19.767 11.405 19.699 11.334 19.651C11.1775 19.5463 10.996 19.4852 10.808 19.474C10.721 19.469 10.623 19.479 10.225 19.533L10.129 19.546C9.49603 19.632 8.98803 19.701 8.57603 19.731C8.15603 19.763 7.77703 19.761 7.41403 19.671C6.79035 19.5184 6.22134 19.1955 5.77053 18.7384C5.31971 18.2812 5.00483 17.7077 4.86103 17.082C4.77803 16.718 4.78103 16.339 4.81803 15.92C4.85403 15.509 4.93103 15.001 5.02503 14.37L5.02903 14.346C5.08703 13.961 5.09803 13.865 5.09503 13.781C5.08687 13.5832 5.02347 13.3916 4.91203 13.228C4.86503 13.159 4.80003 13.089 4.52403 12.814L4.20403 12.494C3.46003 11.75 2.85103 11.14 2.44103 10.612C2.02103 10.072 1.70603 9.48497 1.75503 8.79597C1.77452 8.52194 1.838 8.25283 1.94303 7.99897C2.20803 7.35997 2.75203 6.97797 3.36903 6.68197C3.97103 6.39197 4.78903 6.11997 5.78803 5.78697L15.233 2.63897C17.051 2.03297 18.497 1.54997 19.611 1.35197C20.733 1.15197 21.777 1.19197 22.543 1.95697ZM21.75 3.80997L7.45303 18.107C7.55503 18.151 7.66103 18.187 7.77103 18.214C7.90803 18.248 8.10503 18.262 8.46403 18.236C8.82503 18.209 9.28903 18.146 9.95103 18.056L10.023 18.046L10.081 18.038C10.392 17.996 10.646 17.962 10.898 17.977C11.3519 18.0043 11.7902 18.1521 12.168 18.405C12.378 18.545 12.559 18.727 12.781 18.949L12.823 18.991L13.074 19.241C13.844 20.011 14.372 20.538 14.804 20.875C15.234 21.21 15.444 21.255 15.574 21.249C15.703 21.2429 15.8298 21.2131 15.948 21.161C16.068 21.108 16.234 20.974 16.468 20.481C16.705 19.987 16.942 19.28 17.286 18.248L20.416 8.85597C21.049 6.95897 21.494 5.61797 21.671 4.62597C21.731 4.28997 21.753 4.02397 21.75 3.80997Z" fill="white"/>
</svg>
