<svg width="24" height="24" viewBox="0 0 24 24" fill="none" xmlns="http://www.w3.org/2000/svg">
<path d="M18.5 10.5H13.5V5.5C13.5 5.10218 13.342 4.72064 13.0607 4.43934C12.7794 4.15804 12.3978 4 12 4C11.6022 4 11.2206 4.15804 10.9393 4.43934C10.658 4.72064 10.5 5.10218 10.5 5.5V10.5H5.5C5.10218 10.5 4.72064 10.658 4.43934 10.9393C4.15804 11.2206 4 11.6022 4 12C4 12.3978 4.15804 12.7794 4.43934 13.0607C4.72064 13.342 5.10218 13.5 5.5 13.5H10.5V18.5C10.5 18.8978 10.658 19.2794 10.9393 19.5607C11.2206 19.842 11.6022 20 12 20C12.3978 20 12.7794 19.842 13.0607 19.5607C13.342 19.2794 13.5 18.8978 13.5 18.5V13.5H18.5C18.8978 13.5 19.2794 13.342 19.5607 13.0607C19.842 12.7794 20 12.3978 20 12C20 11.6022 19.842 11.2206 19.5607 10.9393C19.2794 10.658 18.8978 10.5 18.5 10.5Z" fill="white"/>
</svg>
